<svg viewBox="0 0 20 16"
	xmlns="http://www.w3.org/2000/svg">
  <title>Twitter Logo</title>
	<path d="M18.9291 1.8613C18.5018 2.05081 18.0581 2.20031 17.6029 2.30855C18.1045 1.83189 18.4816 1.23569 18.6944 0.570221C18.7551 0.380241 18.5488 0.215961 18.3772 0.31768C17.7439 0.693326 17.0618 0.97513 16.3496 1.15536C16.3083 1.16581 16.2657 1.17111 16.2229 1.17111C16.0932 1.17111 15.9671 1.12295 15.8679 1.03553C15.1103 0.367766 14.1358 0 13.1241 0C12.6863 0 12.2443 0.0682352 11.8103 0.20283C10.4657 0.619885 9.42816 1.72905 9.10265 3.0975C8.98053 3.61079 8.94747 4.12455 9.00431 4.62447C9.01082 4.68192 8.98367 4.72201 8.96693 4.74082C8.93753 4.77379 8.89583 4.79269 8.85255 4.79269C8.84772 4.79269 8.84275 4.79245 8.83782 4.79198C5.89447 4.51853 3.24029 3.1005 1.36417 0.799172C1.2685 0.681789 1.08504 0.696186 1.00879 0.826982C0.641394 1.45728 0.447241 2.17818 0.447241 2.91174C0.447241 4.03596 0.898906 5.09541 1.68345 5.86776C1.35353 5.78953 1.0342 5.66633 0.73758 5.50158C0.594075 5.42186 0.417508 5.52433 0.415491 5.68847C0.39495 7.35856 1.37275 8.84464 2.83753 9.51381C2.80804 9.51452 2.77854 9.51484 2.74899 9.51484C2.51681 9.51484 2.28171 9.49243 2.05032 9.4482C1.88871 9.41734 1.75295 9.57065 1.80313 9.72733C2.27857 11.2117 3.55661 12.3058 5.08601 12.5542C3.8167 13.4063 2.33855 13.8557 0.800094 13.8557L0.320478 13.8554C0.172705 13.8554 0.0477248 13.9518 0.0100664 14.0949C-0.0270291 14.2359 0.0412999 14.3846 0.167312 14.4579C1.90091 15.4668 3.87832 16 5.88664 16C7.64457 16 9.28897 15.6511 10.7742 14.9632C12.1358 14.3324 13.339 13.4308 14.3503 12.2834C15.2925 11.2145 16.0292 9.98062 16.54 8.61601C17.027 7.31523 17.2844 5.92727 17.2844 4.60215V4.53902C17.2843 4.32625 17.3805 4.12605 17.5484 3.98976C18.1855 3.47249 18.7403 2.86358 19.1973 2.17996C19.318 1.99945 19.1277 1.77322 18.9291 1.8613Z"/>
</svg>
