<svg viewBox="0 0 512 512" fill="none" xmlns="http://www.w3.org/2000/svg">
<path d="M256 0C114.615 0 0 114.615 0 256C0 397.385 114.615 512 256 512C397.385 512 512 397.385 512 256C512 114.615 397.385 0 256 0ZM448.266 256C448.266 284.047 442.226 310.708 431.384 334.757L287.867 238.862V66.39C378.769 81.619 448.266 160.839 448.266 256ZM224.133 66.39V238.862L80.616 334.757C69.774 310.708 63.734 284.047 63.734 256C63.734 160.839 133.231 81.619 224.133 66.39ZM116.076 387.716L224.132 315.515V445.61C181.877 438.531 144.25 417.628 116.076 387.716ZM287.867 445.61V315.515L395.923 387.716C367.75 417.628 330.123 438.531 287.867 445.61Z"/>
</svg>
