<svg width="28" height="20" viewBox="0 0 28 20" fill="none" xmlns="http://www.w3.org/2000/svg">
  <title>Email</title>
  <path
    d="M3.19202 0.399902H24.392C26.392 0.399902 27.4 1.3439 27.4 3.2639V16.7359C27.4 18.6399 26.392 19.5999 24.392 19.5999H3.19202C1.19202 19.5999 0.184021 18.6399 0.184021 16.7359V3.2639C0.184021 1.3439 1.19202 0.399902 3.19202 0.399902ZM13.784 14.1599L24.568 5.3119C24.952 4.9919 25.256 4.2559 24.776 3.5999C24.312 2.9439 23.464 2.9279 22.904 3.3279L13.784 9.5039L4.68002 3.3279C4.12002 2.9279 3.27202 2.9439 2.80802 3.5999C2.32802 4.2559 2.63202 4.9919 3.01602 5.3119L13.784 14.1599Z"
    fill="black" />
</svg>
