<svg width="28" height="20" viewBox="0 0 28 20" fill="none" xmlns="http://www.w3.org/2000/svg">
  <path
    d="M11.3333 14.0001L18.2533 10.0001L11.3333 6.00008V14.0001ZM26.7467 3.56008C26.92 4.18675 27.04 5.02675 27.12 6.09341C27.2133 7.16008 27.2533 8.08008 27.2533 8.88008L27.3333 10.0001C27.3333 12.9201 27.12 15.0667 26.7467 16.4401C26.4133 17.6401 25.64 18.4134 24.44 18.7467C23.8133 18.9201 22.6667 19.0401 20.9067 19.1201C19.1733 19.2134 17.5867 19.2534 16.12 19.2534L14 19.3334C8.41332 19.3334 4.93332 19.1201 3.55999 18.7467C2.35999 18.4134 1.58666 17.6401 1.25332 16.4401C1.07999 15.8134 0.95999 14.9734 0.87999 13.9067C0.786657 12.8401 0.746656 11.9201 0.746656 11.1201L0.666656 10.0001C0.666656 7.08008 0.87999 4.93341 1.25332 3.56008C1.58666 2.36008 2.35999 1.58675 3.55999 1.25341C4.18666 1.08008 5.33332 0.960081 7.09332 0.880081C8.82666 0.786748 10.4133 0.746748 11.88 0.746748L14 0.666748C19.5867 0.666748 23.0667 0.880081 24.44 1.25341C25.64 1.58675 26.4133 2.36008 26.7467 3.56008V3.56008Z"
    fill="currentColor" />
</svg>
